<svg id="visual" viewBox="0 0 960 540" width="960" height="540" xmlns="http://www.w3.org/2000/svg" xmlns:xlink="http://www.w3.org/1999/xlink" version="1.1"><rect x="0" y="0" width="960" height="540" fill="#683fe5"></rect><defs><linearGradient id="grad1_0" x1="43.8%" y1="100%" x2="100%" y2="0%"><stop offset="14.444444444444446%" stop-color="#fa643c" stop-opacity="1"></stop><stop offset="85.55555555555554%" stop-color="#fa643c" stop-opacity="1"></stop></linearGradient></defs><defs><linearGradient id="grad1_1" x1="43.8%" y1="100%" x2="100%" y2="0%"><stop offset="14.444444444444446%" stop-color="#fa643c" stop-opacity="1"></stop><stop offset="85.55555555555554%" stop-color="#f1008b" stop-opacity="1"></stop></linearGradient></defs><defs><linearGradient id="grad1_2" x1="43.8%" y1="100%" x2="100%" y2="0%"><stop offset="14.444444444444446%" stop-color="#683fe5" stop-opacity="1"></stop><stop offset="85.55555555555554%" stop-color="#f1008b" stop-opacity="1"></stop></linearGradient></defs><defs><linearGradient id="grad2_0" x1="0%" y1="100%" x2="56.3%" y2="0%"><stop offset="14.444444444444446%" stop-color="#fa643c" stop-opacity="1"></stop><stop offset="85.55555555555554%" stop-color="#fa643c" stop-opacity="1"></stop></linearGradient></defs><defs><linearGradient id="grad2_1" x1="0%" y1="100%" x2="56.3%" y2="0%"><stop offset="14.444444444444446%" stop-color="#f1008b" stop-opacity="1"></stop><stop offset="85.55555555555554%" stop-color="#fa643c" stop-opacity="1"></stop></linearGradient></defs><defs><linearGradient id="grad2_2" x1="0%" y1="100%" x2="56.3%" y2="0%"><stop offset="14.444444444444446%" stop-color="#f1008b" stop-opacity="1"></stop><stop offset="85.55555555555554%" stop-color="#683fe5" stop-opacity="1"></stop></linearGradient></defs><g transform="translate(960, 540)"><path d="M-397 0C-391.8 -26 -386.5 -51.9 -376.6 -74.9C-366.7 -97.9 -352.2 -118 -341.8 -141.6C-331.4 -165.2 -325.2 -192.3 -306 -204.4C-286.8 -216.6 -254.6 -213.7 -251 -251C-247.5 -288.4 -272.5 -366 -255 -381.6C-237.5 -397.3 -177.4 -351 -142 -342.8C-106.5 -334.5 -95.6 -364.4 -76.1 -382.5C-56.5 -400.6 -28.3 -406.8 0 -413L0 0Z" fill="#c601bb"></path><path d="M-264.7 0C-261.2 -17.3 -257.7 -34.6 -251.1 -49.9C-244.5 -65.3 -234.8 -78.7 -227.9 -94.4C-221 -110.1 -216.8 -128.2 -204 -136.3C-191.2 -144.4 -169.7 -142.4 -167.3 -167.3C-165 -192.3 -181.7 -244 -170 -254.4C-158.3 -264.9 -118.3 -234 -94.7 -228.5C-71 -223 -63.8 -243 -50.7 -255C-37.7 -267 -18.8 -271.2 0 -275.3L0 0Z" fill="#ff305f"></path><path d="M-132.3 0C-130.6 -8.7 -128.8 -17.3 -125.5 -25C-122.2 -32.6 -117.4 -39.3 -113.9 -47.2C-110.5 -55.1 -108.4 -64.1 -102 -68.1C-95.6 -72.2 -84.9 -71.2 -83.7 -83.7C-82.5 -96.1 -90.8 -122 -85 -127.2C-79.2 -132.4 -59.1 -117 -47.3 -114.3C-35.5 -111.5 -31.9 -121.5 -25.4 -127.5C-18.8 -133.5 -9.4 -135.6 0 -137.7L0 0Z" fill="#fa643c"></path></g><g transform="translate(0, 0)"><path d="M311 0C369.7 31.9 428.4 63.7 430.6 85.6C432.7 107.6 378.3 119.6 371.4 153.8C364.5 188.1 405.3 244.7 381.6 255C358 265.3 270 229.4 235.5 235.5C201 241.5 220 289.6 215 321.8C210 353.9 180.8 370.1 150.8 364C120.7 357.9 89.8 329.5 64.6 324.6C39.3 319.8 19.7 338.4 0 357L0 0Z" fill="#c601bb"></path><path d="M207.3 0C246.5 21.2 285.6 42.5 287 57.1C288.5 71.7 252.2 79.7 247.6 102.6C243 125.4 270.2 163.1 254.4 170C238.7 176.9 180 152.9 157 157C134 161 146.7 193.1 143.3 214.5C140 235.9 120.5 246.7 100.5 242.7C80.5 238.6 59.9 219.7 43 216.4C26.2 213.2 13.1 225.6 0 238L0 0Z" fill="#ff305f"></path><path d="M103.7 0C123.2 10.6 142.8 21.2 143.5 28.5C144.2 35.9 126.1 39.9 123.8 51.3C121.5 62.7 135.1 81.6 127.2 85C119.3 88.4 90 76.5 78.5 78.5C67 80.5 73.3 96.5 71.7 107.3C70 118 60.3 123.4 50.3 121.3C40.2 119.3 29.9 109.8 21.5 108.2C13.1 106.6 6.6 112.8 0 119L0 0Z" fill="#fa643c"></path></g></svg>